<mxfile host="app.diagrams.net" modified="2024-04-12T10:40:01.457Z" agent="Mozilla/5.0 (X11; Ubuntu; Linux x86_64; rv:124.0) Gecko/20100101 Firefox/124.0" etag="cY40z3WB97BIv51MxScU" version="24.2.3" type="device">
  <diagram name="Page-1" id="929967ad-93f9-6ef4-fab6-5d389245f69c">
    <mxGraphModel dx="1364" dy="765" grid="1" gridSize="10" guides="1" tooltips="1" connect="1" arrows="1" fold="1" page="1" pageScale="1.5" pageWidth="1169" pageHeight="826" background="none" math="0" shadow="0">
      <root>
        <mxCell id="0" style=";html=1;" />
        <mxCell id="1" style=";html=1;" parent="0" />
        <mxCell id="1672d66443f91eb5-23" value="Book Registration" style="text;strokeColor=none;fillColor=none;html=1;fontSize=24;fontStyle=1;verticalAlign=middle;align=center;" parent="1" vertex="1">
          <mxGeometry x="120" y="40" width="1510" height="40" as="geometry" />
        </mxCell>
        <mxCell id="cehiDS3RKDKv_d3ujbLg-4" value="&lt;div style=&quot;font-size: 19px;&quot;&gt;&lt;font style=&quot;font-size: 19px;&quot;&gt;«view»&lt;b&gt;&lt;br&gt;&lt;/b&gt;&lt;/font&gt;&lt;/div&gt;&lt;div style=&quot;font-size: 19px;&quot;&gt;&lt;font style=&quot;font-size: 19px;&quot;&gt;&lt;b&gt;index.php&lt;/b&gt;&lt;/font&gt;&lt;/div&gt;" style="html=1;dropTarget=0;whiteSpace=wrap;" parent="1" vertex="1">
          <mxGeometry x="785" y="110" width="130" height="90" as="geometry" />
        </mxCell>
        <mxCell id="cehiDS3RKDKv_d3ujbLg-5" value="" style="shape=module;jettyWidth=8;jettyHeight=4;" parent="cehiDS3RKDKv_d3ujbLg-4" vertex="1">
          <mxGeometry x="1" width="20" height="20" relative="1" as="geometry">
            <mxPoint x="-27" y="7" as="offset" />
          </mxGeometry>
        </mxCell>
        <mxCell id="cehiDS3RKDKv_d3ujbLg-6" value="&lt;div style=&quot;font-size: 19px;&quot;&gt;&lt;font style=&quot;font-size: 19px;&quot;&gt;«view»&lt;b&gt;&lt;br&gt;&lt;/b&gt;&lt;/font&gt;&lt;/div&gt;&lt;div style=&quot;font-size: 19px;&quot;&gt;&lt;font style=&quot;font-size: 19px;&quot;&gt;&lt;b&gt;author.list.php&lt;/b&gt;&lt;/font&gt;&lt;/div&gt;" style="html=1;dropTarget=0;whiteSpace=wrap;" parent="1" vertex="1">
          <mxGeometry x="600" y="279" width="200" height="90" as="geometry" />
        </mxCell>
        <mxCell id="cehiDS3RKDKv_d3ujbLg-7" value="" style="shape=module;jettyWidth=8;jettyHeight=4;" parent="cehiDS3RKDKv_d3ujbLg-6" vertex="1">
          <mxGeometry x="1" width="20" height="20" relative="1" as="geometry">
            <mxPoint x="-27" y="7" as="offset" />
          </mxGeometry>
        </mxCell>
        <mxCell id="cehiDS3RKDKv_d3ujbLg-8" value="&lt;div style=&quot;font-size: 19px;&quot;&gt;&lt;font style=&quot;font-size: 19px;&quot;&gt;«view»&lt;/font&gt;&lt;/div&gt;&lt;div style=&quot;font-size: 19px;&quot;&gt;&lt;font style=&quot;font-size: 19px;&quot;&gt;&lt;b&gt;book.list.php&lt;/b&gt;&lt;/font&gt;&lt;/div&gt;" style="html=1;dropTarget=0;whiteSpace=wrap;" parent="1" vertex="1">
          <mxGeometry x="877" y="280" width="203" height="90" as="geometry" />
        </mxCell>
        <mxCell id="cehiDS3RKDKv_d3ujbLg-9" value="" style="shape=module;jettyWidth=8;jettyHeight=4;" parent="cehiDS3RKDKv_d3ujbLg-8" vertex="1">
          <mxGeometry x="1" width="20" height="20" relative="1" as="geometry">
            <mxPoint x="-27" y="7" as="offset" />
          </mxGeometry>
        </mxCell>
        <mxCell id="cehiDS3RKDKv_d3ujbLg-10" value="&lt;div style=&quot;font-size: 19px;&quot;&gt;&lt;font style=&quot;font-size: 19px;&quot;&gt;«view»&lt;b&gt;&lt;br&gt;&lt;/b&gt;&lt;/font&gt;&lt;/div&gt;&lt;div style=&quot;font-size: 19px;&quot;&gt;&lt;font style=&quot;font-size: 19px;&quot;&gt;&lt;b&gt;author.edit.php&lt;/b&gt;&lt;/font&gt;&lt;/div&gt;" style="html=1;dropTarget=0;whiteSpace=wrap;" parent="1" vertex="1">
          <mxGeometry x="320" y="190" width="200" height="90" as="geometry" />
        </mxCell>
        <mxCell id="cehiDS3RKDKv_d3ujbLg-11" value="" style="shape=module;jettyWidth=8;jettyHeight=4;" parent="cehiDS3RKDKv_d3ujbLg-10" vertex="1">
          <mxGeometry x="1" width="20" height="20" relative="1" as="geometry">
            <mxPoint x="-27" y="7" as="offset" />
          </mxGeometry>
        </mxCell>
        <mxCell id="cehiDS3RKDKv_d3ujbLg-12" value="&lt;div style=&quot;font-size: 19px;&quot;&gt;&lt;font style=&quot;font-size: 19px;&quot;&gt;«view»&lt;b&gt;&lt;br&gt;&lt;/b&gt;&lt;/font&gt;&lt;/div&gt;&lt;div style=&quot;font-size: 19px;&quot;&gt;&lt;font style=&quot;font-size: 19px;&quot;&gt;&lt;b&gt;book.edit.php&lt;/b&gt;&lt;/font&gt;&lt;/div&gt;" style="html=1;dropTarget=0;whiteSpace=wrap;" parent="1" vertex="1">
          <mxGeometry x="1160" y="190" width="200" height="90" as="geometry" />
        </mxCell>
        <mxCell id="cehiDS3RKDKv_d3ujbLg-13" value="" style="shape=module;jettyWidth=8;jettyHeight=4;" parent="cehiDS3RKDKv_d3ujbLg-12" vertex="1">
          <mxGeometry x="1" width="20" height="20" relative="1" as="geometry">
            <mxPoint x="-27" y="7" as="offset" />
          </mxGeometry>
        </mxCell>
        <mxCell id="cehiDS3RKDKv_d3ujbLg-14" value="&lt;div style=&quot;font-size: 19px;&quot;&gt;&lt;font style=&quot;font-size: 19px;&quot;&gt;«logic»&lt;b&gt;&lt;br&gt;&lt;/b&gt;&lt;/font&gt;&lt;/div&gt;&lt;div style=&quot;font-size: 19px;&quot;&gt;&lt;font style=&quot;font-size: 19px;&quot;&gt;&lt;b&gt;author.save.php&lt;/b&gt;&lt;/font&gt;&lt;/div&gt;" style="html=1;dropTarget=0;whiteSpace=wrap;" parent="1" vertex="1">
          <mxGeometry x="161" y="551" width="200" height="90" as="geometry" />
        </mxCell>
        <mxCell id="cehiDS3RKDKv_d3ujbLg-15" value="" style="shape=module;jettyWidth=8;jettyHeight=4;" parent="cehiDS3RKDKv_d3ujbLg-14" vertex="1">
          <mxGeometry x="1" width="20" height="20" relative="1" as="geometry">
            <mxPoint x="-27" y="7" as="offset" />
          </mxGeometry>
        </mxCell>
        <mxCell id="cehiDS3RKDKv_d3ujbLg-16" value="&lt;div style=&quot;font-size: 19px;&quot;&gt;&lt;font style=&quot;font-size: 19px;&quot;&gt;«logic»&lt;b&gt;&lt;br&gt;&lt;/b&gt;&lt;/font&gt;&lt;/div&gt;&lt;div style=&quot;font-size: 19px;&quot;&gt;&lt;font style=&quot;font-size: 19px;&quot;&gt;&lt;b&gt;book.save.php&lt;/b&gt;&lt;/font&gt;&lt;/div&gt;" style="html=1;dropTarget=0;whiteSpace=wrap;" parent="1" vertex="1">
          <mxGeometry x="1319" y="549" width="200" height="90" as="geometry" />
        </mxCell>
        <mxCell id="cehiDS3RKDKv_d3ujbLg-17" value="" style="shape=module;jettyWidth=8;jettyHeight=4;" parent="cehiDS3RKDKv_d3ujbLg-16" vertex="1">
          <mxGeometry x="1" width="20" height="20" relative="1" as="geometry">
            <mxPoint x="-27" y="7" as="offset" />
          </mxGeometry>
        </mxCell>
        <mxCell id="cehiDS3RKDKv_d3ujbLg-18" value="&lt;div style=&quot;font-size: 19px;&quot;&gt;&lt;font style=&quot;font-size: 19px;&quot;&gt;«logic»&lt;b&gt;&lt;br&gt;&lt;/b&gt;&lt;/font&gt;&lt;/div&gt;&lt;div style=&quot;font-size: 19px;&quot;&gt;&lt;font style=&quot;font-size: 19px;&quot;&gt;&lt;b&gt;author.delete.php&lt;/b&gt;&lt;/font&gt;&lt;/div&gt;" style="html=1;dropTarget=0;whiteSpace=wrap;" parent="1" vertex="1">
          <mxGeometry x="321" y="442" width="200" height="90" as="geometry" />
        </mxCell>
        <mxCell id="cehiDS3RKDKv_d3ujbLg-19" value="" style="shape=module;jettyWidth=8;jettyHeight=4;" parent="cehiDS3RKDKv_d3ujbLg-18" vertex="1">
          <mxGeometry x="1" width="20" height="20" relative="1" as="geometry">
            <mxPoint x="-27" y="7" as="offset" />
          </mxGeometry>
        </mxCell>
        <mxCell id="cehiDS3RKDKv_d3ujbLg-20" value="&lt;div style=&quot;font-size: 19px;&quot;&gt;&lt;font style=&quot;font-size: 19px;&quot;&gt;«logic»&lt;b&gt;&lt;br&gt;&lt;/b&gt;&lt;/font&gt;&lt;/div&gt;&lt;div style=&quot;font-size: 19px;&quot;&gt;&lt;font style=&quot;font-size: 19px;&quot;&gt;&lt;b&gt;book.delete.php&lt;/b&gt;&lt;/font&gt;&lt;/div&gt;" style="html=1;dropTarget=0;whiteSpace=wrap;" parent="1" vertex="1">
          <mxGeometry x="1161" y="436" width="200" height="90" as="geometry" />
        </mxCell>
        <mxCell id="cehiDS3RKDKv_d3ujbLg-21" value="" style="shape=module;jettyWidth=8;jettyHeight=4;" parent="cehiDS3RKDKv_d3ujbLg-20" vertex="1">
          <mxGeometry x="1" width="20" height="20" relative="1" as="geometry">
            <mxPoint x="-27" y="7" as="offset" />
          </mxGeometry>
        </mxCell>
        <mxCell id="cehiDS3RKDKv_d3ujbLg-22" value="&lt;div style=&quot;font-size: 19px;&quot;&gt;&lt;font style=&quot;font-size: 19px;&quot;&gt;«logic»&lt;b&gt;&lt;br&gt;&lt;/b&gt;&lt;/font&gt;&lt;/div&gt;&lt;div style=&quot;font-size: 19px;&quot;&gt;&lt;font style=&quot;font-size: 19px;&quot;&gt;&lt;b&gt;book.functions.php&lt;/b&gt;&lt;/font&gt;&lt;/div&gt;" style="html=1;dropTarget=0;whiteSpace=wrap;" parent="1" vertex="1">
          <mxGeometry x="760" y="632" width="200" height="90" as="geometry" />
        </mxCell>
        <mxCell id="cehiDS3RKDKv_d3ujbLg-23" value="" style="shape=module;jettyWidth=8;jettyHeight=4;" parent="cehiDS3RKDKv_d3ujbLg-22" vertex="1">
          <mxGeometry x="1" width="20" height="20" relative="1" as="geometry">
            <mxPoint x="-27" y="7" as="offset" />
          </mxGeometry>
        </mxCell>
        <mxCell id="cehiDS3RKDKv_d3ujbLg-24" value="Use" style="endArrow=open;endSize=12;dashed=1;html=1;rounded=0;exitX=0.5;exitY=1;exitDx=0;exitDy=0;entryX=0;entryY=0.25;entryDx=0;entryDy=0;" parent="1" source="cehiDS3RKDKv_d3ujbLg-18" target="cehiDS3RKDKv_d3ujbLg-22" edge="1">
          <mxGeometry width="160" relative="1" as="geometry">
            <mxPoint x="180" y="420" as="sourcePoint" />
            <mxPoint x="340" y="420" as="targetPoint" />
          </mxGeometry>
        </mxCell>
        <mxCell id="cehiDS3RKDKv_d3ujbLg-26" value="Use" style="endArrow=open;endSize=12;dashed=1;html=1;rounded=0;exitX=0.5;exitY=1;exitDx=0;exitDy=0;entryX=0;entryY=0.5;entryDx=0;entryDy=0;" parent="1" source="cehiDS3RKDKv_d3ujbLg-14" target="cehiDS3RKDKv_d3ujbLg-22" edge="1">
          <mxGeometry width="160" relative="1" as="geometry">
            <mxPoint x="600" y="674.5" as="sourcePoint" />
            <mxPoint x="750" y="670" as="targetPoint" />
          </mxGeometry>
        </mxCell>
        <mxCell id="cehiDS3RKDKv_d3ujbLg-27" value="Use" style="endArrow=open;endSize=12;dashed=1;html=1;rounded=0;exitX=0.5;exitY=1;exitDx=0;exitDy=0;entryX=0.995;entryY=0.589;entryDx=0;entryDy=0;entryPerimeter=0;" parent="1" source="cehiDS3RKDKv_d3ujbLg-16" target="cehiDS3RKDKv_d3ujbLg-22" edge="1">
          <mxGeometry width="160" relative="1" as="geometry">
            <mxPoint x="1160" y="630" as="sourcePoint" />
            <mxPoint x="1320" y="630" as="targetPoint" />
          </mxGeometry>
        </mxCell>
        <mxCell id="cehiDS3RKDKv_d3ujbLg-29" value="Use" style="endArrow=open;endSize=12;dashed=1;html=1;rounded=0;exitX=0.5;exitY=1;exitDx=0;exitDy=0;entryX=1.01;entryY=0.333;entryDx=0;entryDy=0;entryPerimeter=0;" parent="1" source="cehiDS3RKDKv_d3ujbLg-20" target="cehiDS3RKDKv_d3ujbLg-22" edge="1">
          <mxGeometry width="160" relative="1" as="geometry">
            <mxPoint x="850" y="430" as="sourcePoint" />
            <mxPoint x="1010" y="430" as="targetPoint" />
          </mxGeometry>
        </mxCell>
        <mxCell id="cehiDS3RKDKv_d3ujbLg-30" value="Use" style="endArrow=open;endSize=12;dashed=1;html=1;rounded=0;exitX=0.5;exitY=1;exitDx=0;exitDy=0;" parent="1" source="cehiDS3RKDKv_d3ujbLg-8" target="cehiDS3RKDKv_d3ujbLg-22" edge="1">
          <mxGeometry width="160" relative="1" as="geometry">
            <mxPoint x="850" y="430" as="sourcePoint" />
            <mxPoint x="1010" y="430" as="targetPoint" />
          </mxGeometry>
        </mxCell>
        <mxCell id="cehiDS3RKDKv_d3ujbLg-31" value="Use" style="endArrow=open;endSize=12;dashed=1;html=1;rounded=0;exitX=0.5;exitY=1;exitDx=0;exitDy=0;curved=1;" parent="1" edge="1">
          <mxGeometry width="160" relative="1" as="geometry">
            <mxPoint x="710" y="370" as="sourcePoint" />
            <mxPoint x="840" y="631" as="targetPoint" />
          </mxGeometry>
        </mxCell>
        <mxCell id="cehiDS3RKDKv_d3ujbLg-32" value="dispatch" style="html=1;verticalAlign=bottom;startArrow=oval;startFill=1;endArrow=block;startSize=8;curved=0;rounded=0;exitX=0.54;exitY=-0.033;exitDx=0;exitDy=0;exitPerimeter=0;" parent="1" source="cehiDS3RKDKv_d3ujbLg-16" target="cehiDS3RKDKv_d3ujbLg-46" edge="1">
          <mxGeometry width="60" relative="1" as="geometry">
            <mxPoint x="1450" y="180" as="sourcePoint" />
            <mxPoint x="960" y="430" as="targetPoint" />
          </mxGeometry>
        </mxCell>
        <mxCell id="cehiDS3RKDKv_d3ujbLg-33" value="dispatch" style="html=1;verticalAlign=bottom;startArrow=oval;startFill=1;endArrow=block;startSize=8;curved=0;rounded=0;exitX=0;exitY=0.5;exitDx=0;exitDy=0;entryX=0.5;entryY=0;entryDx=0;entryDy=0;" parent="1" source="cehiDS3RKDKv_d3ujbLg-4" target="cehiDS3RKDKv_d3ujbLg-6" edge="1">
          <mxGeometry width="60" relative="1" as="geometry">
            <mxPoint x="650" y="170" as="sourcePoint" />
            <mxPoint x="710" y="170" as="targetPoint" />
          </mxGeometry>
        </mxCell>
        <mxCell id="cehiDS3RKDKv_d3ujbLg-34" value="dispatch" style="html=1;verticalAlign=bottom;startArrow=oval;startFill=1;endArrow=block;startSize=8;curved=0;rounded=0;entryX=0.5;entryY=0;entryDx=0;entryDy=0;exitX=1;exitY=0.5;exitDx=0;exitDy=0;" parent="1" source="cehiDS3RKDKv_d3ujbLg-4" target="cehiDS3RKDKv_d3ujbLg-8" edge="1">
          <mxGeometry width="60" relative="1" as="geometry">
            <mxPoint x="930" y="160" as="sourcePoint" />
            <mxPoint x="990" y="160" as="targetPoint" />
          </mxGeometry>
        </mxCell>
        <mxCell id="cehiDS3RKDKv_d3ujbLg-35" value="dispatch" style="html=1;verticalAlign=bottom;startArrow=oval;startFill=1;endArrow=block;startSize=8;curved=0;rounded=0;exitX=1.005;exitY=0.622;exitDx=0;exitDy=0;exitPerimeter=0;" parent="1" source="cehiDS3RKDKv_d3ujbLg-12" target="cehiDS3RKDKv_d3ujbLg-16" edge="1">
          <mxGeometry width="60" relative="1" as="geometry">
            <mxPoint x="1440" y="290" as="sourcePoint" />
            <mxPoint x="1500" y="290" as="targetPoint" />
          </mxGeometry>
        </mxCell>
        <mxCell id="cehiDS3RKDKv_d3ujbLg-36" value="dispatch" style="html=1;verticalAlign=bottom;startArrow=oval;startFill=1;endArrow=block;startSize=8;curved=0;rounded=0;exitX=0.5;exitY=0;exitDx=0;exitDy=0;entryX=1;entryY=0.5;entryDx=0;entryDy=0;" parent="1" source="cehiDS3RKDKv_d3ujbLg-6" target="cehiDS3RKDKv_d3ujbLg-10" edge="1">
          <mxGeometry width="60" relative="1" as="geometry">
            <mxPoint x="610" y="220" as="sourcePoint" />
            <mxPoint x="580" y="220" as="targetPoint" />
          </mxGeometry>
        </mxCell>
        <mxCell id="cehiDS3RKDKv_d3ujbLg-37" value="dispatch" style="html=1;verticalAlign=bottom;startArrow=oval;startFill=1;endArrow=block;startSize=8;curved=0;rounded=0;exitX=0.5;exitY=0;exitDx=0;exitDy=0;entryX=-0.02;entryY=0.367;entryDx=0;entryDy=0;entryPerimeter=0;" parent="1" source="cehiDS3RKDKv_d3ujbLg-8" target="cehiDS3RKDKv_d3ujbLg-12" edge="1">
          <mxGeometry width="60" relative="1" as="geometry">
            <mxPoint x="1030" y="240" as="sourcePoint" />
            <mxPoint x="1090" y="240" as="targetPoint" />
          </mxGeometry>
        </mxCell>
        <mxCell id="cehiDS3RKDKv_d3ujbLg-38" value="dispatch" style="html=1;verticalAlign=bottom;startArrow=oval;startFill=1;endArrow=block;startSize=8;curved=0;rounded=0;exitX=0.837;exitY=1.022;exitDx=0;exitDy=0;exitPerimeter=0;entryX=0;entryY=0.75;entryDx=0;entryDy=0;" parent="1" source="cehiDS3RKDKv_d3ujbLg-8" target="cehiDS3RKDKv_d3ujbLg-20" edge="1">
          <mxGeometry width="60" relative="1" as="geometry">
            <mxPoint x="1090" y="410" as="sourcePoint" />
            <mxPoint x="1160" y="410" as="targetPoint" />
          </mxGeometry>
        </mxCell>
        <mxCell id="cehiDS3RKDKv_d3ujbLg-39" value="dispatch" style="html=1;verticalAlign=bottom;startArrow=oval;startFill=1;endArrow=block;startSize=8;curved=0;rounded=0;entryX=1;entryY=0.75;entryDx=0;entryDy=0;" parent="1" source="cehiDS3RKDKv_d3ujbLg-6" target="cehiDS3RKDKv_d3ujbLg-18" edge="1">
          <mxGeometry width="60" relative="1" as="geometry">
            <mxPoint x="630" y="430" as="sourcePoint" />
            <mxPoint x="690" y="430" as="targetPoint" />
          </mxGeometry>
        </mxCell>
        <mxCell id="cehiDS3RKDKv_d3ujbLg-40" value="dispatch" style="html=1;verticalAlign=bottom;startArrow=oval;startFill=1;endArrow=block;startSize=8;curved=0;rounded=0;exitX=-0.015;exitY=0.656;exitDx=0;exitDy=0;exitPerimeter=0;" parent="1" source="cehiDS3RKDKv_d3ujbLg-10" target="cehiDS3RKDKv_d3ujbLg-14" edge="1">
          <mxGeometry width="60" relative="1" as="geometry">
            <mxPoint x="220" y="310" as="sourcePoint" />
            <mxPoint x="280" y="310" as="targetPoint" />
          </mxGeometry>
        </mxCell>
        <mxCell id="cehiDS3RKDKv_d3ujbLg-42" value="&lt;div style=&quot;font-size: 19px;&quot;&gt;&lt;font style=&quot;font-size: 19px;&quot;&gt;«view»&lt;b&gt;&lt;br&gt;&lt;/b&gt;&lt;/font&gt;&lt;/div&gt;&lt;div style=&quot;font-size: 19px;&quot;&gt;&lt;font style=&quot;font-size: 19px;&quot;&gt;&lt;b&gt;author.message.php&lt;/b&gt;&lt;/font&gt;&lt;/div&gt;" style="html=1;dropTarget=0;whiteSpace=wrap;" parent="1" vertex="1">
          <mxGeometry x="120" y="41" width="200" height="90" as="geometry" />
        </mxCell>
        <mxCell id="cehiDS3RKDKv_d3ujbLg-43" value="" style="shape=module;jettyWidth=8;jettyHeight=4;" parent="cehiDS3RKDKv_d3ujbLg-42" vertex="1">
          <mxGeometry x="1" width="20" height="20" relative="1" as="geometry">
            <mxPoint x="-27" y="7" as="offset" />
          </mxGeometry>
        </mxCell>
        <mxCell id="cehiDS3RKDKv_d3ujbLg-44" value="dispatch" style="html=1;verticalAlign=bottom;startArrow=oval;startFill=1;endArrow=block;startSize=8;curved=0;rounded=0;exitX=0.5;exitY=0;exitDx=0;exitDy=0;entryX=0.7;entryY=1;entryDx=0;entryDy=0;entryPerimeter=0;" parent="1" source="cehiDS3RKDKv_d3ujbLg-14" target="cehiDS3RKDKv_d3ujbLg-42" edge="1">
          <mxGeometry width="60" relative="1" as="geometry">
            <mxPoint x="180" y="350" as="sourcePoint" />
            <mxPoint x="240" y="350" as="targetPoint" />
          </mxGeometry>
        </mxCell>
        <mxCell id="cehiDS3RKDKv_d3ujbLg-45" value="dispatch" style="html=1;verticalAlign=bottom;startArrow=oval;startFill=1;endArrow=block;startSize=8;curved=0;rounded=0;exitX=0.995;exitY=0.422;exitDx=0;exitDy=0;exitPerimeter=0;entryX=0.5;entryY=0;entryDx=0;entryDy=0;" parent="1" source="cehiDS3RKDKv_d3ujbLg-42" target="cehiDS3RKDKv_d3ujbLg-6" edge="1">
          <mxGeometry width="60" relative="1" as="geometry">
            <mxPoint x="360" y="120" as="sourcePoint" />
            <mxPoint x="760" y="430" as="targetPoint" />
          </mxGeometry>
        </mxCell>
        <mxCell id="cehiDS3RKDKv_d3ujbLg-46" value="&lt;div style=&quot;font-size: 19px;&quot;&gt;&lt;font style=&quot;font-size: 19px;&quot;&gt;«view»&lt;b&gt;&lt;br&gt;&lt;/b&gt;&lt;/font&gt;&lt;/div&gt;&lt;div style=&quot;font-size: 19px;&quot;&gt;&lt;font style=&quot;font-size: 19px;&quot;&gt;&lt;b&gt;book.message.php&lt;/b&gt;&lt;/font&gt;&lt;/div&gt;" style="html=1;dropTarget=0;whiteSpace=wrap;" parent="1" vertex="1">
          <mxGeometry x="1402" y="42" width="200" height="90" as="geometry" />
        </mxCell>
        <mxCell id="cehiDS3RKDKv_d3ujbLg-47" value="" style="shape=module;jettyWidth=8;jettyHeight=4;" parent="cehiDS3RKDKv_d3ujbLg-46" vertex="1">
          <mxGeometry x="1" width="20" height="20" relative="1" as="geometry">
            <mxPoint x="-27" y="7" as="offset" />
          </mxGeometry>
        </mxCell>
        <mxCell id="cehiDS3RKDKv_d3ujbLg-48" value="dispatch" style="html=1;verticalAlign=bottom;startArrow=oval;startFill=1;endArrow=block;startSize=8;curved=0;rounded=0;exitX=0.5;exitY=0;exitDx=0;exitDy=0;entryX=0.455;entryY=0.978;entryDx=0;entryDy=0;entryPerimeter=0;" parent="1" source="cehiDS3RKDKv_d3ujbLg-18" target="cehiDS3RKDKv_d3ujbLg-42" edge="1">
          <mxGeometry width="60" relative="1" as="geometry">
            <mxPoint x="630" y="310" as="sourcePoint" />
            <mxPoint x="690" y="310" as="targetPoint" />
          </mxGeometry>
        </mxCell>
        <mxCell id="cehiDS3RKDKv_d3ujbLg-49" value="dispatch" style="html=1;verticalAlign=bottom;startArrow=oval;startFill=1;endArrow=block;startSize=8;curved=0;rounded=0;entryX=0.5;entryY=1;entryDx=0;entryDy=0;exitX=0.5;exitY=0;exitDx=0;exitDy=0;" parent="1" source="cehiDS3RKDKv_d3ujbLg-20" target="cehiDS3RKDKv_d3ujbLg-46" edge="1">
          <mxGeometry width="60" relative="1" as="geometry">
            <mxPoint x="1260" y="360" as="sourcePoint" />
            <mxPoint x="1190" y="310" as="targetPoint" />
          </mxGeometry>
        </mxCell>
        <mxCell id="cehiDS3RKDKv_d3ujbLg-50" value="dispatch" style="html=1;verticalAlign=bottom;startArrow=oval;startFill=1;endArrow=block;startSize=8;curved=0;rounded=0;entryX=0.5;entryY=0;entryDx=0;entryDy=0;exitX=0;exitY=0.25;exitDx=0;exitDy=0;" parent="1" source="cehiDS3RKDKv_d3ujbLg-46" target="cehiDS3RKDKv_d3ujbLg-8" edge="1">
          <mxGeometry width="60" relative="1" as="geometry">
            <mxPoint x="1400" y="90" as="sourcePoint" />
            <mxPoint x="1300" y="110" as="targetPoint" />
          </mxGeometry>
        </mxCell>
        <mxCell id="VyHXlvs9A2OqMn0_MvN0-3" value="&lt;div style=&quot;font-size: 19px;&quot;&gt;&lt;font style=&quot;font-size: 19px;&quot;&gt;«logic»&lt;b&gt;&lt;br&gt;&lt;/b&gt;&lt;/font&gt;&lt;/div&gt;&lt;div style=&quot;font-size: 19px;&quot;&gt;&lt;font style=&quot;font-size: 19px;&quot;&gt;&lt;b&gt;book.config.php&lt;/b&gt;&lt;/font&gt;&lt;/div&gt;" style="html=1;dropTarget=0;whiteSpace=wrap;" parent="1" vertex="1">
          <mxGeometry x="761" y="788" width="183" height="90" as="geometry" />
        </mxCell>
        <mxCell id="VyHXlvs9A2OqMn0_MvN0-4" value="" style="shape=module;jettyWidth=8;jettyHeight=4;" parent="VyHXlvs9A2OqMn0_MvN0-3" vertex="1">
          <mxGeometry x="1" width="20" height="20" relative="1" as="geometry">
            <mxPoint x="-27" y="7" as="offset" />
          </mxGeometry>
        </mxCell>
        <mxCell id="VyHXlvs9A2OqMn0_MvN0-5" value="Use" style="endArrow=open;endSize=12;dashed=1;html=1;rounded=0;exitX=0.46;exitY=1;exitDx=0;exitDy=0;exitPerimeter=0;entryX=0.5;entryY=0;entryDx=0;entryDy=0;" parent="1" source="cehiDS3RKDKv_d3ujbLg-22" target="VyHXlvs9A2OqMn0_MvN0-3" edge="1">
          <mxGeometry width="160" relative="1" as="geometry">
            <mxPoint x="620" y="740" as="sourcePoint" />
            <mxPoint x="860" y="790" as="targetPoint" />
          </mxGeometry>
        </mxCell>
      </root>
    </mxGraphModel>
  </diagram>
</mxfile>
